<?xml version="1.0" encoding="utf-8"?>
<!-- Generator: Adobe Illustrator 26.0.1, SVG Export Plug-In . SVG Version: 6.00 Build 0)  -->
<svg version="1.1" id="Layer_1" xmlns="http://www.w3.org/2000/svg" xmlns:xlink="http://www.w3.org/1999/xlink" x="0px" y="0px"
	 viewBox="0 0 2000 45" style="enable-background:new 0 0 2000 45;" xml:space="preserve">
<style type="text/css">
	.st0{fill:#FFFFFF;}
	.st1{fill:#FDEDEC;}
</style>
<rect y="0.2" transform="matrix(-1 -1.224647e-16 1.224647e-16 -1 2000 50.7455)" class="st0" width="2000" height="50.3"/>
<path class="st1" d="M0,0.2c17.5,4,53.1,15.6,53.8,15.5c3.6-1.8,29.1,1.2,32.8,6.3c0,0,16.1,5.1,17,5.1c2.2,0,20.8-4.6,21.4-3.9
	c1.1,1,22.8,5.7,22.8,8c3.8-1.9,35,11.9,38.6,10.3c1.7,1.2,3.6,2.2,5.5,3.7c3-3,5.5-5.2,7.8-7.5c4.4,1.2,8,2.1,11.7,3.3
	c0.8-0.1,1.7-0.4,2.5-0.7c6.6-1.9,8.7-1.5,12,1.9c2.8,3.3,8.7,3.4,13.3,1.2c3.3-1.5,7.7-4,10.8-3.6c7.3,1,9.8-1.6,13.3-4
	c2.5-1.6,5.2-3.3,7.7-4.8c3,1.2,5.8,1.8,8.7,3.1c0.6-1,0.9-1.9,1.3-3.1c0.6,0,1.4,0,2,0.1v8.6c3.3-1.2,5.8-1.8,8-2.8
	c2.2,1.2,3.8,2.4,5.8,3.7c8.4-1.8,16.7-3.1,25.2-0.1c1.6,0.4,3.3,0.4,5,0.1c1.9-0.6,3.8-1.5,5.5-2.4c2,0.4,3.8,1.2,6.2,1.6
	c2.8-1.6,5-4.5,10.8-2.4c1.3,0.4,3.8-0.1,5.8-0.4c6.6-1.2,12.8-2.1,19.7-3.1c2.7,0,5.2,0.1,7.8,0.4c1.6,0.1,3.1,0.3,4.7,0.3
	c9.8,0.4,19.5-3.6,29.4-0.1c0.9,0.3,2,0.3,3,0.1c6.2-2.4,13.8-1.8,20.6-1.9c1.7-0.1,3.6-0.6,5.2-1.3c3-1.2,15.6-2.2,18.9-1.6
	c7.3,1.2,13.3,0.4,16.7-3.6c21.1,2.4,21.1,2.4,28.1-1.3c3.8,0.6,9.8,2.4,11.7,1.6c7.8-3.7,11.6-0.3,16.1,2.1
	c8.3-1.6,17.8,1.2,26.1-2.1c12,4.2,24.5,4.2,37.8,0.3c8.3,5.7,15.8,5.8,22.8,0c0.5,1.9,1.1,3.9,1.7,5.8c5.5-1.2,10-1.6,14.2-2.8
	c4.4-1,9.8-3.6,12.3-3c6.9,1.9,8.8-2.8,14.8-2.1c1.7,1.3,3.8,3.4,6.6,5.4c2.2-0.4,4.7-1,6.6-1.5c5.8-1.6,11.2-3.1,17,0
	c1.6,0.3,3.1,0.4,4.7,0.1c4.1-0.3,8-1,12.3-1.3c1.4-1.3,2.7-2.8,3.8-4.5c14.1,1.6,27,4,40.8,0.6c0.9,0,1.9,0.1,2.8,0.4
	c3.8,1.8,6.1,0.4,8.4-1.2c2-1,4.4-2.8,6.6-2.8c12-0.3,24.4,0.6,36.4-0.4c5-0.4,11.2,0.4,14.8-1c5.5-2.2,9.8-1.3,15-0.7
	c4.1,0.4,8.1,1.5,11.7,3.3c3.3,1.5,7,0.7,7.7-1.6c0.5-2.4,3-3.6,6.1-3.3c5.5,1.2,11.3,0.4,16.6,2.8c8.4,3.6,18.1,3.9,26.9,1
	c2.8-1,5.5-1.5,8.3-2.4c0.8-0.1,1.7-0.1,2.5-0.1c2,1,3.8,1.8,5.8,3c3.3-2.8,7.7-2.8,11.7-1.3c4.7,1.3,9.7,1.9,14.5,1.3
	c4.4-0.4,9.1-0.7,13.8-1c3.3-0.1,7.3-1.2,9.5,1.3c0.3,0.4,2.5,0.6,3.6,0.4c6.1-1,12-2.2,18.1-3.4c0.3,0.4,0.8,0.7,0.8,1
	c0.2,0.4,0.3,0.7,0.3,1.2c3-0.9,6.1-1.6,9.2-2.1c3-0.3,7.8,1,9.5,0.1c6.3-3,13.3-1.8,20.3-3c3.6,3.9,3.6,3.9,9.5,1.3
	c1.2-0.4,2.5-0.7,3.8-0.7c5,0.1,10,0.3,15,0.7c4.4,0.4,9.2,0.7,12.5,2.1c3.1,1.3,6.6,2.1,10,1.8c7.7-0.3,15.3-0.4,23-0.7
	c7-0.3,14.2-0.6,23.6-1.2c2.8,0.7,7.8,1.8,12.3,3.4c5.8,2.2,12.2,2.1,17.8-0.1c2.8-1,7.3-2.4,9.1-1.8c5.5,2.1,2.8-1.9,5-1.6
	c3,0.4,6.1,1.3,8.4,1c6.1-0.6,11.7,0.3,17.8,0.1c8.3-0.1,16.6,0,19.1-6.3c8.3,3.7,15,1.5,21.4-0.7c1.6,0.9,3.1,1.8,4.7,3
	c2.8-0.7,5-1.9,6.9-1.6c4.1,0.6,8.1,1.5,12,2.8c1.6-0.7,3.3-1.3,5-1.6c8.4-0.6,17-0.6,25.2-1.3c3.3-0.3,8.3,0.7,10.9-1.6
	c1.7-0.6,3.8-0.6,5.5,0c3.6,3,8.4,1.8,13.1,1.5c5.5-0.4,10.9-0.7,16.1,1c2.5,0.7,6.6,1.2,8.8,0.3c7.7-3,15.6-4,24.5-5.1
	c9.2-1.2,16.1,0.7,23,3.4c2.8-1.5,5.5-2.4,9.1-0.6c8,4.6,16.7,3.3,25.8,1c4.7,1.2,9.1,5.1,15.8,1.8c9.1,1.5,18.3,0.9,27-1.5
	c1.2-0.3,2.7-0.1,3.8,0.3c3,1.8,6.4,2.7,9.8,2.4c2,3.9,6.6,1.3,10,1.2c4.1,0,8.4-1.5,11.7-0.7c4.1,1,8.3,0.6,12,1.2
	c4.7,0.6,9.8-1.2,14.8-1.2c8-0.1,15.8-2.1,23-5.5c1.2-0.7,2.7-1.2,4.1-1.3c6.2-0.6,12.7-0.9,18.9-0.6c6.1,0.4,12,1,18.3,0.1
	c1.9,0.1,3.8,0.6,5.5,1.3c4.1,1.5,8,3,13.3,1.6c3.6-0.6,6.9,0,6.2,2.8c3.8-0.1,8.3-1.2,11.7-0.4s5,1.3,7.3-0.7
	c1.1-0.7,5.3-0.1,7.7-0.7c6.9-1.3,13.3-3.7,20.3-4.6c3.6-0.4,9.1-0.4,12.3,1.9c5.8,4,8.8,3.7,18.1,1.3c2.3-0.6,4.7-1,7-1.3
	c5.5-0.3,11.2-0.4,17.8-0.7c3.3,4.5,9.8,7.9,18.9,10.7v-4.8c7.3,5.8,17.8,4.6,26.6,6.7c7.3-2.8,14.8-5.2,24.1-8.5
	c8.3,1.5,15.8,4.8,25.2,1.8c2.2-0.4,4.5-0.1,6.6,0.6c5.3,3,12.3,3,18.1,4.9c6.9,2.4,14.5,4.5,21.9,6.4c2,0.4,19.5-3.7,21.4-3.7
	c10.9,0,33.4-17.6,42.2-15c10,3.1,21.4-0.3,33.1,1.5c10.3-2.8,20-8,27.2-10.6H0z"/>
</svg>
